<?xml version="1.0" encoding="iso-8859-1"?>
<!-- Generator: Adobe Illustrator 19.0.0, SVG Export Plug-In . SVG Version: 6.00 Build 0)  -->
<svg version="1.1" id="Capa_1" xmlns="http://www.w3.org/2000/svg" xmlns:xlink="http://www.w3.org/1999/xlink" x="0px" y="0px"
	 viewBox="0 0 496 496" style="enable-background:new 0 0 496 496;" xml:space="preserve">
<g>
	<g>
		<path d="M280,480v-48h140.832l-97.712-88h83.176l-87.432-72h78.424L315,200h55.336l-86.456-93.112l8.896,4.448l-11.704-40.352
			l31.544-28.736l-44.832-10.544L248,1.344l-19.784,30.352L183.384,42.24l31.544,28.736l-11.704,40.352l8.896-4.448L125.656,200
			h55.336l-82.288,72h78.424l-87.432,72h83.184l-97.712,88H216v48H32v16h432v-16H280z M238.12,45.808L248,30.656l9.88,15.16
			l21.504,5.056l-16.456,14.992l4.296,14.808l-14.344-7.176L248,68.24l-4.872,5.248l-14.352,7.176l4.296-14.808l-16.456-14.992
			L238.12,45.808z M116.832,416l97.72-88h-80.248l87.432-72h-80.44l82.288-72h-61.232L248,91.76L333.656,184h-61.232l82.288,72
			h-80.44l87.432,72h-80.256l97.712,88H116.832z M264,480h-32v-48h32V480z"/>
	</g>
</g>
<g>
	<g>
		<rect x="272" y="152" width="16" height="16"/>
	</g>
</g>
<g>
	<g>
		<rect x="208" y="224" width="16" height="16"/>
	</g>
</g>
<g>
	<g>
		<rect x="272" y="296" width="16" height="16"/>
	</g>
</g>
<g>
	<g>
		<rect x="200" y="376" width="16" height="16"/>
	</g>
</g>
<g>
	<g>
		<rect x="480" y="480" width="16" height="16"/>
	</g>
</g>
<g>
	<g>
		<rect y="480" width="16" height="16"/>
	</g>
</g>
<g>
	<g>
		<rect x="432" width="16" height="32"/>
	</g>
</g>
<g>
	<g>
		<rect x="403.744" y="11.72" transform="matrix(0.7071 -0.7071 0.7071 0.7071 100.9963 299.2661)" width="16" height="32"/>
	</g>
</g>
<g>
	<g>
		<rect x="384" y="48" width="32" height="16"/>
	</g>
</g>
<g>
	<g>
		<rect x="395.693" y="76.317" transform="matrix(0.7071 -0.7071 0.7071 0.7071 60.9607 315.8065)" width="32" height="16"/>
	</g>
</g>
<g>
	<g>
		<rect x="432" y="80" width="16" height="32"/>
	</g>
</g>
<g>
	<g>
		<rect x="460.305" y="68.285" transform="matrix(0.7071 -0.7071 0.7071 0.7071 77.5646 355.8283)" width="16" height="32"/>
	</g>
</g>
<g>
	<g>
		<rect x="464" y="48" width="32" height="16"/>
	</g>
</g>
<g>
	<g>
		<rect x="452.255" y="19.788" transform="matrix(0.7071 -0.7071 0.7071 0.7071 117.4994 339.2452)" width="32" height="16"/>
	</g>
</g>
<g>
	<g>
		<rect x="48" width="16" height="32"/>
	</g>
</g>
<g>
	<g>
		<rect x="19.718" y="11.715" transform="matrix(0.7071 -0.7071 0.7071 0.7071 -11.4787 27.7166)" width="16" height="32"/>
	</g>
</g>
<g>
	<g>
		<rect y="48" width="32" height="16"/>
	</g>
</g>
<g>
	<g>
		<rect x="11.717" y="76.293" transform="matrix(0.7071 -0.7071 0.7071 0.7071 -51.486 44.2876)" width="32" height="16"/>
	</g>
</g>
<g>
	<g>
		<rect x="48" y="80" width="16" height="32"/>
	</g>
</g>
<g>
	<g>
		<rect x="76.284" y="68.275" transform="matrix(0.7071 -0.7071 0.7071 0.7071 -34.9047 84.2812)" width="16" height="32"/>
	</g>
</g>
<g>
	<g>
		<rect x="80" y="48" width="32" height="16"/>
	</g>
</g>
<g>
	<g>
		<rect x="68.285" y="19.719" transform="matrix(0.7071 -0.7071 0.7071 0.7071 5.0865 67.7169)" width="32" height="16"/>
	</g>
</g>
<g>
	<g>
		<rect x="464" y="224" width="16" height="16"/>
	</g>
</g>
<g>
	<g>
		<rect x="448" y="240" width="16" height="16"/>
	</g>
</g>
<g>
	<g>
		<rect x="464" y="256" width="16" height="16"/>
	</g>
</g>
<g>
	<g>
		<rect x="480" y="240" width="16" height="16"/>
	</g>
</g>
<g>
	<g>
		<rect x="16" y="352" width="16" height="16"/>
	</g>
</g>
<g>
	<g>
		<rect y="368" width="16" height="16"/>
	</g>
</g>
<g>
	<g>
		<rect x="16" y="384" width="16" height="16"/>
	</g>
</g>
<g>
	<g>
		<rect x="32" y="368" width="16" height="16"/>
	</g>
</g>
<g>
	<g>
		<rect x="80" y="192" width="16" height="16"/>
	</g>
</g>
<g>
	<g>
		<rect x="64" y="208" width="16" height="16"/>
	</g>
</g>
<g>
	<g>
		<rect x="80" y="224" width="16" height="16"/>
	</g>
</g>
<g>
	<g>
		<rect x="96" y="208" width="16" height="16"/>
	</g>
</g>
<g>
	<g>
		<rect x="424" y="352" width="16" height="16"/>
	</g>
</g>
<g>
	<g>
		<rect x="408" y="368" width="16" height="16"/>
	</g>
</g>
<g>
	<g>
		<rect x="424" y="384" width="16" height="16"/>
	</g>
</g>
<g>
	<g>
		<rect x="440" y="368" width="16" height="16"/>
	</g>
</g>
<g>
</g>
<g>
</g>
<g>
</g>
<g>
</g>
<g>
</g>
<g>
</g>
<g>
</g>
<g>
</g>
<g>
</g>
<g>
</g>
<g>
</g>
<g>
</g>
<g>
</g>
<g>
</g>
<g>
</g>
</svg>
